<svg width="40" height="40" viewBox="0 0 40 40" fill="none" xmlns="http://www.w3.org/2000/svg">
<path fill-rule="evenodd" clip-rule="evenodd" d="M20 35C28.2843 35 35 28.2843 35 20C35 11.7157 28.2843 5 20 5C11.7157 5 5 11.7157 5 20C5 28.2843 11.7157 35 20 35ZM16.1785 13.8215C15.5276 13.1706 14.4724 13.1706 13.8215 13.8215C13.1706 14.4724 13.1706 15.5276 13.8215 16.1785L17.643 20L13.8215 23.8215C13.1706 24.4724 13.1706 25.5276 13.8215 26.1785C14.4724 26.8294 15.5276 26.8294 16.1785 26.1785L20 22.357L23.8215 26.1785C24.4724 26.8294 25.5276 26.8294 26.1785 26.1785C26.8294 25.5276 26.8294 24.4724 26.1785 23.8215L22.357 20L26.1785 16.1785C26.8294 15.5276 26.8294 14.4724 26.1785 13.8215C25.5276 13.1706 24.4724 13.1706 23.8215 13.8215L20 17.643L16.1785 13.8215Z" fill="#DF4D5E"/>
</svg>
